<svg xmlns="http://www.w3.org/2000/svg"  viewBox="0 0 64 64" width="64px" height="64px"><linearGradient id="seLd~5rFoQius8ougoW2Ba" x1="36.5" x2="36.5" y1="10.154" y2="53.818" gradientUnits="userSpaceOnUse"><stop offset=".02" stop-color="#6dc7ff"/><stop offset="1" stop-color="#e6abff"/></linearGradient><polygon fill="url(#seLd~5rFoQius8ougoW2Ba)" points="41,32 26,11 21.5,11 17,11 32,32 17,53 21.5,53 26,53 36.5,38.3 47,53 51.5,53 56,53"/><linearGradient id="seLd~5rFoQius8ougoW2Bb" x1="50.601" x2="50.601" y1="23.974" y2="29.652" gradientUnits="userSpaceOnUse"><stop offset="0" stop-color="#6dc7ff"/><stop offset=".253" stop-color="#87c1ff"/><stop offset=".791" stop-color="#cab1ff"/><stop offset="1" stop-color="#e6abff"/></linearGradient><polygon fill="url(#seLd~5rFoQius8ougoW2Bb)" points="40.201,24 44.487,30 61,30 61,24"/><linearGradient id="seLd~5rFoQius8ougoW2Bc" x1="54.529" x2="54.529" y1="34.974" y2="41.206" gradientUnits="userSpaceOnUse"><stop offset="0" stop-color="#6dc7ff"/><stop offset="1" stop-color="#e6abff"/></linearGradient><polygon fill="url(#seLd~5rFoQius8ougoW2Bc)" points="48.059,35 52.344,41 61,41 61,35"/><linearGradient id="seLd~5rFoQius8ougoW2Bd" x1="15" x2="15" y1="11.137" y2="53.3" gradientUnits="userSpaceOnUse"><stop offset="0" stop-color="#6dc7ff"/><stop offset="1" stop-color="#e6abff"/></linearGradient><polygon fill="url(#seLd~5rFoQius8ougoW2Bd)" points="12,53 7.5,53 3,53 18,32 3,11 7.5,11 12,11 27,32"/><linearGradient id="seLd~5rFoQius8ougoW2Be" x1="15" x2="15" y1="10.071" y2="53.971" gradientUnits="userSpaceOnUse"><stop offset="0" stop-color="#1a6dff"/><stop offset="1" stop-color="#c822ff"/></linearGradient><path fill="url(#seLd~5rFoQius8ougoW2Be)" d="M12,54H3c-0.375,0-0.718-0.209-0.89-0.542c-0.171-0.334-0.142-0.734,0.076-1.039L16.771,32	L2.187,11.581c-0.218-0.305-0.247-0.705-0.076-1.039C2.282,10.209,2.625,10,3,10h9c0.323,0,0.626,0.156,0.813,0.419l15,21	c0.249,0.348,0.249,0.814,0,1.162l-15,21C12.626,53.844,12.323,54,12,54z M4.943,52h6.542l14.286-20L11.485,12H4.943l13.87,19.419	c0.249,0.348,0.249,0.814,0,1.162L4.943,52z"/><linearGradient id="seLd~5rFoQius8ougoW2Bf" x1="36.5" x2="36.5" y1="10" y2="54.046" gradientUnits="userSpaceOnUse"><stop offset="0" stop-color="#1a6dff"/><stop offset="1" stop-color="#c822ff"/></linearGradient><path fill="url(#seLd~5rFoQius8ougoW2Bf)" d="M56,54h-9c-0.323,0-0.626-0.156-0.813-0.419L36.5,40.021l-9.687,13.561	C26.626,53.844,26.323,54,26,54h-9c-0.375,0-0.718-0.209-0.89-0.542c-0.171-0.334-0.142-0.734,0.076-1.039L30.771,32L16.187,11.581	c-0.218-0.305-0.247-0.705-0.076-1.039C16.282,10.209,16.625,10,17,10h9c0.323,0,0.626,0.156,0.813,0.419l30,42	c0.218,0.305,0.247,0.705,0.076,1.039C56.718,53.791,56.375,54,56,54z M47.515,52h6.542L25.485,12h-6.542l13.87,19.419	c0.249,0.348,0.249,0.814,0,1.162L18.943,52h6.542l10.201-14.281c0.375-0.525,1.252-0.525,1.627,0L47.515,52z"/><linearGradient id="seLd~5rFoQius8ougoW2Bg" x1="50.601" x2="50.601" y1="22.949" y2="31.69" gradientUnits="userSpaceOnUse"><stop offset="0" stop-color="#1a6dff"/><stop offset=".906" stop-color="#c822ff"/></linearGradient><path fill="url(#seLd~5rFoQius8ougoW2Bg)" d="M61,31H44.487c-0.323,0-0.626-0.156-0.813-0.419l-4.286-6	c-0.218-0.305-0.247-0.705-0.076-1.039C39.483,23.209,39.826,23,40.201,23H61c0.553,0,1,0.447,1,1v6C62,30.553,61.553,31,61,31z M45.002,29H60v-4H42.145L45.002,29z"/><linearGradient id="seLd~5rFoQius8ougoW2Bh" x1="54.529" x2="54.529" y1="34.058" y2="42.093" gradientUnits="userSpaceOnUse"><stop offset="0" stop-color="#1a6dff"/><stop offset="1" stop-color="#c822ff"/></linearGradient><path fill="url(#seLd~5rFoQius8ougoW2Bh)" d="M61,42h-8.655c-0.323,0-0.626-0.156-0.813-0.419l-4.286-6	c-0.218-0.305-0.247-0.705-0.076-1.039C47.341,34.209,47.684,34,48.059,34H61c0.553,0,1,0.447,1,1v6C62,41.553,61.553,42,61,42z M52.859,40H60v-4h-9.998L52.859,40z"/></svg>